<?xml version="1.0" encoding="UTF-8"?>
<svg id="Livello_2" data-name="Livello 2" xmlns="http://www.w3.org/2000/svg" viewBox="0 0 503.35 504.34">
  <defs>
    <style>
      .cls-1 {
        fill: #04b597;
      }
    </style>
  </defs>
  <g id="Labirinti">
    <g>
      <path class="cls-1" d="m.32.95v249.81c0,.52.43.95.95.95h17.11c.52,0,.95-.43.95-.95V100.42c0-.52.43-.95.95-.95h139.7c.52,0,.95.43.95.95v149.84c0,.52.43.95.95.95h17.11c.52,0,.95-.43.95-.95V81.41c0-.52-.43-.95-.95-.95H20.27c-.52,0-.95-.43-.95-.95V19.96c0-.52.43-.95.95-.95h221.11c.52,0,.95.43.95.95v159.02c0,.52.43.95.95.95h88.38c.52,0,.95-.43.95-.95v-17.11c0-.52-.43-.95-.95-.95h-69.38c-.52,0-.95-.43-.95-.95V19.96c0-.52.43-.95.95-.95h221.11c.52,0,.95.43.95.95v149.74c0,.52.43.95.95.95h17.11c.52,0,.95-.43.95-.95V.95c0-.52-.43-.95-.95-.95H1.27C.74,0,.32.43.32.95Z"/>
      <path class="cls-1" d="m421.7,79.83h-88.13c-.52,0-.95.43-.95.95v17.11c0,.52.43.95.95.95h69.12c.52,0,.95.43.95.95v140.87c0,.52-.43.95-.95.95h-69.44c-.52,0-.95.43-.95.95v17.11c0,.52.43.95.95.95h149.84c.52,0,.95.43.95.95v140.44c0,.52-.43.95-.95.95h-68.74c-.52,0-.95.43-.95.95v17.11c0,.52.43.95.95.95h68.74c.52,0,.95.43.95.95v61.46c0,.52-.43.95-.95.95h-140.02c-.52,0-.95-.43-.95-.95v-143.19c0-.52.43-.95.95-.95h69.69c.52,0,.95-.43.95-.95v-17.11c0-.52-.43-.95-.95-.95h-88.7c-.52,0-.95.43-.95.95v80.12c0,.52-.43.95-.95.95h-150.79c-.52,0-.95.43-.95.95v17.11c0,.52.43.95.95.95h150.79c.52,0,.95.43.95.95v61.17c0,.52-.43.95-.95.95H19.96c-.52,0-.95-.43-.95-.95v-151.42c0-.52-.43-.95-.95-.95H.95c-.52,0-.95.43-.95.95v170.43c0,.52.43.95.95.95h501.15c.52,0,.95-.43.95-.95V242.55c0-.52-.43-.95-.95-.95h-78.5c-.52,0-.95-.43-.95-.95V80.78c0-.52-.43-.95-.95-.95h0Z"/>
      <path class="cls-1" d="m80.46,171.7v240.12c0,.52.43.95.95.95h17.11c.52,0,.95-.43.95-.95v-68.74c0-.52.43-.95.95-.95h159.66c.52,0,.95-.43.95-.95v-88.38c0-.52-.43-.95-.95-.95h-17.11c-.52,0-.95.43-.95.95v69.38c0,.52-.43.95-.95.95H100.42c-.52,0-.95-.43-.95-.95v-150.47c0-.52-.43-.95-.95-.95h-17.11c-.52,0-.95.43-.95.95h0Z"/>
    </g>
  </g>
</svg>