<?xml version="1.0" encoding="UTF-8"?>
<svg id="Livello_1" data-name="Livello 1" xmlns="http://www.w3.org/2000/svg" viewBox="0 0 305.75 393.22">
  <defs>
    <style>
      .cls-1 {
        fill: none;
        stroke: #8cf5c9;
        stroke-miterlimit: 10;
      }
    </style>
  </defs>
  <path class="cls-1" d="m284.02,370.94v-21.69h-22.15v43.19"/>
  <path class="cls-1" d="m217.82,349.18h-20.18"/>
  <path class="cls-1" d="m304.98,109.84h-64.75"/>
  <path class="cls-1" d="m239.71.79v42.86"/>
  <path class="cls-1" d="m196.85,392.44v-20.93c-.31-.08-.48-.16-.66-.16-7.03.02-14.07.04-21.1.06"/>
  <path class="cls-1" d="m284.02,219.03c0,6.42,0,12.84,0,19.25q0,1.71,1.71,1.71c6.42,0,12.84,0,19.25,0"/>
  <path class="cls-1" d="m239.71,153.36v21.23"/>
  <path class="cls-1" d="m44.68,371.34h42.2"/>
  <path class="cls-1" d="m284.02,110.24v20.44"/>
  <path class="cls-1" d="m64.85,218.5h-20.31"/>
  <path class="cls-1" d="m65.77,349.18h21.1"/>
  <path class="cls-1" d="m130.65,349.18h-20.31"/>
  <path class="cls-1" d="m109.69,372v20.44"/>
  <path class="cls-1" d="m239.71,284.7v20.97h-1.58c-13.19,0-26.37,0-39.56,0q-1.71,0-1.71,1.71v19.12"/>
  <path class="cls-1" d="m43.88.92c0,6.73-.02,13.45.02,20.18,0,1.39-.2,1.61-1.6,1.6-6.15-.04-12.31,0-18.46-.03-.86,0-1.32.28-1.32,1.2,0,6.68,0,13.36,0,19.99.48.4.97.32,1.45.32,13.27,0,26.55,0,39.82,0,.44,0,.88-.08,1.32-.13"/>
  <path class="cls-1" d="m65.38,282.06v23.64H22.52v20.8"/>
  <path class="cls-1" d="m153.07,348.92c-.69.13-.67-.32-.66-.79,0-1.76,0-3.52,0-5.27,0-4.75,0-9.49,0-14.24,0-.44.18-.91-.31-1.45h-1c-6.15,0-12.31,0-18.46,0-1.47,0-1.6.12-1.59,1.59.02,4.09,0,8.18,0,12.26v29.93"/>
  <path class="cls-1" d="m130.79,44.04c-.44.04-.88.13-1.32.13-6.07,0-12.13,0-18.2.02-1.43,0-1.6-.16-1.59-1.59.02-6.11.01-12.22,0-18.33,0-.49.1-1-.25-1.52h-44.06v42.86h22.15v-20.9"/>
  <path class="cls-1" d="m130.52,284.17c-13.76,0-27.52,0-41.27,0q-1.71,0-1.71,1.71c0,13.27,0,26.55,0,39.82,0,.44-.18.91.26,1.38h21.92v-21.43h64.58"/>
  <path class="cls-1" d="m131.05,23.34v86.32c-.6.28-1.1.18-1.58.18-20.79,0-41.58,0-62.37,0q-1.71,0-1.71,1.71v18.33c0,7.12-.01,14.24,0,21.36,0,1.43-.16,1.6-1.59,1.59-6.15-.02-12.31,0-18.46-.01-.45,0-.91.08-1.45-.3v-21.19h-21.36v-20.84"/>
  <path class="cls-1" d="m174.96,392.7h130.29V.67c-.51-.27-.99-.14-1.45-.14-20.84,0-41.67,0-62.51,0h-87.16q-1.71,0-1.71,1.71v61.45c0,.35-.05.71.01,1.05.1.56.31,1.04,1.04.93.21-.03.44,0,.66,0,13.71,0,27.43,0,41.14,0,.49,0,.98.07,1.52-.17v-21.07c-.46-.33-1-.25-1.52-.25-6.33,0-12.66-.02-18.99.02-1.39,0-1.61-.2-1.6-1.6.04-6.37.02-12.75.02-19.12"/>
  <path class="cls-1" d="m174.7,197.54v64.45h22.15v8.87c0,3.96.04,7.91-.02,11.87-.02,1.16.32,1.48,1.47,1.47,6.2-.05,12.4-.05,18.59,0,1.16,0,1.49-.32,1.47-1.47-.05-5.71.08-11.43-.05-17.14-.18-8.09-.04-16.18-.11-24.26,0-.4-.05-.79-.09-1.32h-21.07c-.27-.6-.2-1.1-.2-1.58,0-6.11.02-12.22-.02-18.33,0-1.39.21-1.6,1.6-1.6,13.27.03,26.55.01,39.82.02.44,0,.91-.18,1.45.32v20.51"/>
  <path class="cls-1" d="m242.48,87.03h41.44V22.75h-22.05v42.92h-43.25"/>
  <path class="cls-1" d="m261.2,174.86h-42.92v22.22h43.58v64.75"/>
  <path class="cls-1" d="m87.66,151.65c-.29,7.71,0,15.43-.18,23.14H22.55v-21.96H.63"/>
  <path class="cls-1" d="m131.05,261.23v-42.66h-21.36v43.38h-44.34v-21.96H22.59v-42.86h42.26"/>
  <path class="cls-1" d="m65.38,371.07v-20.31c0-7.3,0-14.59,0-21.89q0-1.71-1.71-1.71c-6.07,0-12.13.02-18.2-.02-1.39,0-1.61.21-1.6,1.6.04,6.29.02,12.57.02,18.86,0,.49.07.98-.2,1.58h-21.16v21.89"/>
  <path class="cls-1" d="m218.48,262.02h65.47v22c-.53.25-1.03.15-1.52.15-6.29,0-12.57,0-18.86,0q-1.71,0-1.71,1.71c0,6.07,0,12.13,0,18.2,0,.49-.1,1,.27,1.55h21.75v21.53h-44.21v44.18c-6.87,0-13.57,0-20.27,0-.91,0-1.2-.46-1.2-1.32.02-4.26,0-8.53,0-12.79v-29.41"/>
  <path class="cls-1" d="m43.88,109.18v-43.45h-21.36v21.3H.76"/>
  <path class="cls-1" d="m65.77,131.34c21.19,0,42.37,0,63.56-.02,1.68,0,1.92.35,1.86,1.86-.25,6.2-.12,12.39-.15,18.59,0,.31-.04.62-.07.9-.53.24-1.03.15-1.51.15-6.07,0-12.13.03-18.2-.01-1.39,0-1.61.21-1.6,1.6.04,6.29.02,12.57.02,18.86,0,.49-.1,1,.23,1.49.31.22.71.08,1.08.08,6.15.01,12.31.03,18.46-.01,1.39,0,1.61.21,1.6,1.6-.04,6.77-.02,13.54-.02,20.31"/>
  <path class="cls-1" d="m197.64,22.68h20.64v87.16h-65.47"/>
  <path class="cls-1" d="m152.41,219.03v63.3q0,1.85,1.85,1.85c6.29,0,12.57,0,18.86,0,.51,0,1.04-.12,1.58.3v64.44"/>
  <path class="cls-1" d="m22.92,284.17h20.93v-22.15H.63"/>
  <path class="cls-1" d="m109.69,66.06v20.97H44.28"/>
  <path class="cls-1" d="m218.21,131.73v20.86c-.59.32-1.16.24-1.71.24-20.75,0-41.49,0-62.24,0q-1.85,0-1.85,1.85c0,6.2,0,12.4,0,18.59,0,.49-.1,1,.23,1.49.4.21.89.08,1.35.08,13.8,0,27.6.01,41.41,0,.87,0,1.46.18,1.45,1.2,0,6.97,0,13.93,0,21.1h-109.32v42.2"/>
  <path class="cls-1" d="m130.39.53H.5v392.03c.47.21.96.14,1.45.14,35.43,0,70.86,0,106.29,0,14.15,0,28.31-.01,42.46.02,1.68,0,1.89-.35,1.87-1.86-.09-6.28-.11-12.57-.15-18.86"/>
  <path class="cls-1" d="m173.91,87.03c-6.64,0-13.27.02-19.91-.02-1.39,0-1.61.2-1.6,1.6.04,6.46.02,12.92.02,19.38,0,7.16,0,14.33,0,21.49q0,1.85,1.85,1.85h107.29c.42.52.31,1.06.31,1.58,0,6.11.02,12.22,0,18.33,0,1.43.16,1.6,1.59,1.59,6.33-.02,12.66-.01,18.99,0,.48,0,.98-.09,1.58.18v43.59"/>
</svg>